<?xml version="1.0" encoding="utf-8"?>
<!-- Svg Vector Icons : http://www.onlinewebfonts.com/icon -->
<!DOCTYPE svg PUBLIC "-//W3C//DTD SVG 1.1//EN" "http://www.w3.org/Graphics/SVG/1.1/DTD/svg11.dtd">
<svg version="1.1" xmlns="http://www.w3.org/2000/svg" xmlns:xlink="http://www.w3.org/1999/xlink" x="0px" y="0px" viewBox="0 0 1000 1000" enable-background="new 0 0 1000 1000" xml:space="preserve">
<metadata> Svg Vector Icons : http://www.onlinewebfonts.com/icon </metadata>
<g><g transform="translate(0.000000,250.000000) scale(0.100000,-0.100000)"><path d="M4565.3,2336.9c-54.6-7.8-229.9-35.1-389.7-58.5c-939.2-136.4-1940.8-650.8-2650.1-1364c-1859-1858.9-1905.7-4820.8-105.2-6722.6c744.4-787.2,1683.6-1293.9,2743.6-1477c717.1-124.7,1710.9-54.5,2389,175.4c2572.1,861.3,3947.8,3601,3094.3,6149.7C9008,957.3,7203.7,2282.3,5149.9,2340.8C4880.9,2348.6,4619.8,2348.6,4565.3,2336.9z M5753.9,1651C6599.6,1510.7,7558.3,988.5,8135.1,361C9117.1-714.6,9487.4-2172.1,9125-3582.9c-101.3-393.6-440.4-1091.2-693.7-1422.5C7819.4-5808.1,7028.3-6334.2,6015-6611c-253.3-70.1-413.1-81.8-1001.6-81.8c-639.1-3.9-736.6,7.8-1083.4,101.3c-432.6,116.9-993.8,370.2-1356.2,611.9c-323.5,218.3-908,806.7-1118.5,1130.2c-448.2,682-662.5,1336.7-697.6,2127.9c-27.3,604,23.4,1024.9,183.2,1504.3C1615.1,813.1,3626,2009.5,5753.9,1651z"/><path d="M2227-796.4v-974.3h1032.7h1032.7v974.3v974.3H3259.7H2227V-796.4z M3980.7-796.4v-662.5h-721h-721v662.5v662.5h721h721V-796.4z"/><path d="M4643.2-1127.7v-643l674.2,7.8l670.3,11.7v623.5v623.5l-670.3,11.7l-674.2,7.8V-1127.7z"/><path d="M6552.8-1127.7v-643l674.2,7.8l670.3,11.7v623.5v623.5L7227-492.4l-674.2,7.8V-1127.7z"/><path d="M2733.6-2784v-623.5h682h685.9l-11.7,615.7l-11.7,611.9l-670.3,11.7l-674.2,7.8V-2784z"/><path d="M4643.2-2784v-623.5h682h685.9l-11.7,615.7l-11.7,611.9l-670.3,11.7l-674.2,7.8V-2784z"/><path d="M6552.8-2784v-623.5h682h685.9l-11.7,615.7l-11.7,611.9l-670.3,11.7l-674.2,7.8V-2784z"/><path d="M2733.6-4459.7v-623.5l674.2,7.8l670.3,11.7l11.7,615.7l11.7,611.9h-685.9h-682V-4459.7z"/><path d="M4643.2-4459.7v-623.5l674.2,7.8l670.3,11.7l11.7,615.7l11.7,611.9h-685.9h-682V-4459.7z"/><path d="M6552.8-4459.7v-623.5l674.2,7.8l670.3,11.7L7909-4448l11.7,611.9h-685.9h-682V-4459.7z"/></g></g>
</svg>